
        <svg xmlns="http://www.w3.org/2000/svg" xmlns:xlink="http://www.w3.org/1999/xlink" version="1.1" width="3187.5" 
        height="814.0846613199006" viewBox="0 0 3187.5 814.0846613199006">
			
			<g transform="scale(9.375) translate(10, 10)">
				<defs id="SvgjsDefs1367"><linearGradient id="SvgjsLinearGradient1372"><stop id="SvgjsStop1373" stop-color="#ef4136" offset="0"></stop><stop id="SvgjsStop1374" stop-color="#fbb040" offset="1"></stop></linearGradient><linearGradient id="SvgjsLinearGradient1375"><stop id="SvgjsStop1376" stop-color="#ef4136" offset="0"></stop><stop id="SvgjsStop1377" stop-color="#fbb040" offset="1"></stop></linearGradient></defs><g id="SvgjsG1368" featureKey="symbolFeature-0" transform="matrix(1.0141987201807532,0,0,1.0141987201807532,-0.709938910683473,-17.342798501976986)" fill="url(#SvgjsLinearGradient1372)"><path xmlns="http://www.w3.org/2000/svg" d="M93.6,33.3l-3.1-4.8L48.6,54.8l-8.1-12.9L5.1,64.3l-4.4-6.9L43,30.6l8.1,12.9L86,21.6L83,17.1L99.3,18L93.6,33.3z   M12.1,82.9h10.4V60.6l-10.4,6.6V82.9z M28.7,56.7v26.2H39V51.2l-0.5-0.8L28.7,56.7z M45.2,64.2v18.8h10.4V57.6l-9,5.6L45.2,64.2z   M61.8,82.9h10.4V47.2l-10.4,6.5V82.9z M78.4,82.9h10.4V36.8l-10.4,6.5V82.9z"></path></g><g id="SvgjsG1369" featureKey="nameFeature-0" transform="matrix(1.2250305809025628,0,0,1.2250305809025628,117.12877324129903,2.2380155947649083)" fill="url(#SvgjsLinearGradient1375)"><path d="M2.3438 12.050999999999998 l0 27.949 l4.2383 0 l0 -11.895 l7.7344 0 l0 -4.2383 l-7.7344 0 l0 -7.5781 l10.02 0 l0 -4.2383 l-14.258 0 z M24.27735 12.09 l-4.2383 0 l0 27.91 l4.2383 0 l0 -27.91 z M45.0005 12.050999999999998 l0 19.98 l-11.934 -19.98 l-4.4336 0 l0 27.949 l4.2383 0 l0 -19.98 l11.953 19.98 l4.4336 0 l0 -27.949 l-4.2578 0 z M53.554725 12.050999999999998 l0 27.949 l5.1953 0 l16.465 -27.949 l-4.9219 0 l-12.48 21.191 l0 -21.191 l-4.2578 0 z M82.07031875 12.09 l-4.2383 0 l0 27.91 l4.2383 0 l0 -27.91 z M86.69926875 12.050999999999998 l0 27.949 l14.258 0 l0 -4.2383 l-10.02 0 l0 -7.6563 l7.7344 0 l0 -4.2383 l-7.7344 0 l0 -7.5781 l10.02 0 l0 -4.2383 l-14.258 0 z M104.57031875 12.050999999999998 l0 27.949 l5.1953 0 l12.383 -21.035 l0 21.035 l5.1953 0 l16.465 -27.949 l-4.9219 0 l-12.48 21.191 l0 -21.191 l-5.1172 0 l-12.48 21.191 l0 -21.191 l-4.2383 0 z M160.683125 12.050999999999998 l-5.918 10.039 l-5.918 -10.039 l-4.9219 0 l8.3789 14.219 l-8.0859 13.73 l4.9219 0 l5.625 -9.5508 l5.625 9.5508 l4.9219 0 l-8.0859 -13.73 l8.3789 -14.219 l-4.9219 0 z"></path></g>
			</g>
		</svg>
	